<svg width="20" height="20" viewBox="0 0 20 20" fill="none" xmlns="http://www.w3.org/2000/svg">
<path fill-rule="evenodd" clip-rule="evenodd" d="M20 10C20 15.5228 15.5228 20 10 20C4.47715 20 0 15.5228 0 10C0 4.47715 4.47715 0 10 0C15.5228 0 20 4.47715 20 10ZM2.08103 8.85705C2.63562 4.98019 5.96978 2 10 2C14.3965 2 17.9646 5.54644 17.9997 9.93461L15.9828 10.5211L12.4444 9.6677C11.9972 9.55984 11.5508 9.83344 11.4324 10.2783L10.8511 12.462L9.03572 4.61195C8.94881 4.23611 8.62351 3.96304 8.2389 3.95088C7.85421 3.93871 7.51262 4.19083 7.40288 4.56068L5.96065 9.42113L3.34436 8.57286C3.16295 8.51404 2.96728 8.51904 2.78906 8.58701L2.08103 8.85705ZM2.03088 10.7078L3.10929 10.2965L6.26492 11.3196C6.48151 11.3898 6.71672 11.3686 6.91754 11.2611C7.11823 11.1535 7.26717 10.9692 7.33216 10.7501L8.11121 8.12466L9.97038 16.164C10.0583 16.5442 10.3901 16.8187 10.7794 16.8253C11.1688 16.8319 11.5095 16.5688 11.6099 16.1916L12.8512 11.528L15.8079 12.2411C15.9499 12.2753 16.0982 12.2717 16.2384 12.2306L17.8022 11.7757C16.9946 15.3394 13.808 18 10 18C5.82023 18 2.38913 14.7945 2.03088 10.7078Z" fill="#FF2E5D"/>
</svg>
